<?xml version="1.0" standalone="no"?>
<!DOCTYPE svg PUBLIC "-//W3C//DTD SVG 20010904//EN"
 "http://www.w3.org/TR/2001/REC-SVG-20010904/DTD/svg10.dtd">
<svg version="1.0" xmlns="http://www.w3.org/2000/svg"
 width="700.000000pt" height="700.000000pt" viewBox="0 0 700.000000 700.000000"
 preserveAspectRatio="xMidYMid meet">
<metadata>
Created by potrace 1.11, written by Peter Selinger 2001-2013
</metadata>
<g transform="translate(0.000000,700.000000) scale(0.100000,-0.100000)"
fill="#000000" stroke="none">
<path d="M833 6759 c-119 -20 -249 -93 -334 -188 -60 -67 -123 -193 -138 -275
-7 -40 -11 -366 -11 -963 l0 -903 -35 0 c-102 0 -230 -92 -281 -202 l-29 -63
-3 -1805 c-2 -1310 0 -1819 8 -1857 23 -107 123 -215 235 -254 33 -12 264 -14
1395 -14 l1355 0 60 28 c33 15 80 47 104 70 48 47 101 146 101 192 0 17 4 35
8 42 6 9 137 13 527 15 516 3 520 3 577 26 153 62 243 225 215 387 -5 28 -58
230 -118 450 -60 220 -109 406 -109 413 0 10 69 12 328 10 l327 -3 5 -690 5
-690 25 -50 c36 -72 117 -148 187 -177 l58 -23 710 0 c580 0 717 3 750 14 106
37 199 133 230 236 22 72 22 2808 0 2880 -39 131 -151 225 -297 250 l-38 6 0
1308 c0 884 -3 1327 -11 1367 -17 98 -80 216 -157 293 -73 73 -141 116 -242
153 l-65 23 -2645 1 c-1487 1 -2668 -2 -2697 -7z m5378 -260 c75 -35 134 -96
172 -177 l32 -67 3 -1317 3 -1317 -563 -3 -563 -3 -58 -23 c-70 -29 -151 -105
-187 -177 -23 -46 -25 -65 -30 -215 l-5 -165 -872 -3 -872 -2 -3 562 -3 563
-23 58 c-29 70 -105 151 -177 187 l-50 25 -1215 5 -1215 5 0 910 0 910 23 50
c50 109 102 161 201 202 l56 23 2645 -3 2645 -2 56 -26z m-3245 -2315 c55 -26
64 -55 64 -204 l0 -130 -1401 0 -1401 0 4 133 c2 108 6 138 21 161 38 58 -31
55 1380 56 1182 0 1302 -1 1333 -16z m64 -1849 l0 -1285 -1400 0 -1400 0 0
1278 c0 703 3 1282 7 1285 3 4 633 7 1400 7 l1393 0 0 -1285z m3695 1012 c40
-40 48 -80 43 -217 l-3 -95 -757 -3 -758 -2 0 126 c0 140 12 184 59 209 22 12
137 14 705 15 l678 0 33 -33z m-1705 -897 l0 -350 -875 0 -875 0 0 350 0 350
875 0 875 0 0 -350z m1750 -525 l0 -875 -760 0 -760 0 0 875 0 875 760 0 760
0 0 -875z m-2660 -58 c0 -1 35 -131 78 -289 44 -158 77 -290 74 -293 -3 -3
-227 -5 -499 -5 l-493 0 0 295 0 295 420 0 c231 0 420 -1 420 -3z m236 -867
c18 -58 17 -84 -1 -120 -31 -61 -25 -60 -575 -60 l-500 0 0 115 0 115 531 -2
532 -3 13 -45z m-1316 -310 c0 -98 -4 -139 -15 -160 -33 -64 55 -60 -1389 -60
l-1314 0 -31 26 c-17 14 -35 42 -41 62 -11 41 -14 245 -3 255 3 4 633 7 1400
7 l1393 0 0 -130z m3738 30 c5 -137 -3 -177 -43 -217 l-33 -33 -676 0 c-748 0
-718 -2 -750 64 -12 26 -16 64 -16 160 l0 126 758 -2 757 -3 3 -95z"/>
<path d="M820 6185 l0 -115 115 0 115 0 0 115 0 115 -115 0 -115 0 0 -115z"/>
<path d="M1280 6185 l0 -115 120 0 120 0 0 115 0 115 -120 0 -120 0 0 -115z"/>
<path d="M1750 6185 l0 -115 115 0 115 0 0 115 0 115 -115 0 -115 0 0 -115z"/>
<path d="M4230 5915 l-235 -235 80 -80 c44 -44 84 -80 90 -80 6 0 114 104 240
230 l230 230 -85 85 -85 85 -235 -235z"/>
<path d="M4465 5330 l-350 -350 83 -82 82 -83 352 352 353 353 -80 80 c-44 44
-82 80 -85 80 -3 0 -163 -157 -355 -350z"/>
<path d="M3415 5100 l-350 -350 83 -82 82 -83 350 350 350 350 -83 83 -82 82
-350 -350z"/>
<path d="M3650 4515 l-235 -235 83 -82 82 -83 235 235 235 235 -83 83 -82 82
-235 -235z"/>
<path d="M1665 3000 l-350 -350 83 -82 82 -83 350 350 350 350 -83 83 -82 82
-350 -350z"/>
<path d="M1785 2300 l-700 -700 83 -82 82 -83 700 700 700 700 -83 83 -82 82
-700 -700z"/>
<path d="M845 2180 l-230 -230 83 -82 82 -83 235 235 235 235 -77 77 c-43 43
-82 78 -88 78 -6 0 -114 -104 -240 -230z"/>
<path d="M5805 2240 l-290 -290 83 -82 82 -83 292 292 293 293 -80 80 c-44 44
-82 80 -85 80 -3 0 -136 -130 -295 -290z"/>
<path d="M6037 1772 l-287 -287 83 -83 82 -82 290 290 290 290 -80 80 c-44 44
-82 80 -85 80 -3 0 -135 -129 -293 -288z"/>
</g>
</svg>
