<svg xmlns="http://www.w3.org/2000/svg" viewBox="0 0 512 512" width="512" height="512">
	<style>
		tspan { white-space:pre }
		.shp0 { fill: #000000 } 
	</style>
	<g id="Layer">
		<g id="Layer">
			<g id="Layer">
				<path id="Layer" class="shp0" d="M512,68.57v275.76c0,26.66 -21.68,48.35 -48.34,48.35h-136.99c1.23,26.66 6,52.51 14.23,77.07h33.47c6.08,0 11.01,4.93 11.01,11.01c0,6.08 -4.93,11.01 -11.01,11.01h-236.73c-6.08,0 -11.01,-4.93 -11.01,-11.01c0,-6.08 4.93,-11.01 11.01,-11.01h33.47c8.22,-24.56 12.99,-50.41 14.23,-77.07h-136.99c-26.65,0 -48.34,-21.69 -48.34,-48.35v-275.76c0,-26.65 21.68,-48.34 48.34,-48.34h415.33c26.65,0 48.34,21.68 48.34,48.34zM22.02,320.03h467.96v-251.46c0,-14.51 -11.8,-26.32 -26.32,-26.32h-415.33c-14.51,0 -26.31,11.81 -26.31,26.32zM317.76,469.75c-7.59,-24.71 -12,-50.53 -13.14,-77.07h-97.23c-1.14,26.54 -5.55,52.37 -13.14,77.07zM489.98,342.05h-467.96v2.28c0,14.52 11.81,26.33 26.32,26.33h415.33c14.51,0 26.32,-11.81 26.32,-26.33h0z" />
				<path id="Layer" class="shp0" d="M402.82,275.99h-237.08c-6.08,0 -11.01,4.93 -11.01,11.01c0,6.08 4.93,11.01 11.01,11.01h237.09c6.08,0 11.01,-4.93 11.01,-11.01c0,-6.08 -4.93,-11.01 -11.01,-11.01z" />
				<path id="Layer" class="shp0" d="M110.96,275.99h-1.77c-6.08,0 -11.01,4.93 -11.01,11.01c0,6.08 4.93,11.01 11.01,11.01h1.77c6.08,0 11.01,-4.93 11.01,-11.01c0,-6.08 -4.93,-11.01 -11.01,-11.01z" />
				<path id="Layer" class="shp0" d="M320.97,111.32l64.91,55.49l-64.91,55.49c-4.62,3.95 -5.17,10.9 -1.21,15.52c2.18,2.55 5.26,3.86 8.37,3.86c2.53,0 5.07,-0.87 7.15,-2.64l74.7,-63.86c2.45,-2.09 3.86,-5.15 3.86,-8.37c0,-3.22 -1.41,-6.28 -3.86,-8.37l-74.7,-63.86c-4.62,-3.95 -11.57,-3.41 -15.52,1.22c-3.95,4.62 -3.41,11.57 1.22,15.52z" />
				<path id="Layer" class="shp0" d="M102.03,175.18l74.7,63.86c2.07,1.77 4.62,2.64 7.15,2.64c3.11,0 6.2,-1.31 8.37,-3.86c3.95,-4.62 3.41,-11.57 -1.21,-15.52l-64.91,-55.49l64.91,-55.49c4.62,-3.95 5.16,-10.9 1.21,-15.52c-3.95,-4.62 -10.9,-5.17 -15.52,-1.22l-74.7,63.86c-2.45,2.09 -3.86,5.15 -3.86,8.37c0,3.22 1.41,6.28 3.86,8.37z" />
				<path id="Layer" class="shp0" d="M224.51,263.54c1.13,0.37 2.28,0.54 3.41,0.54c4.64,0 8.95,-2.95 10.47,-7.61l56.16,-172.51c1.88,-5.78 -1.28,-12 -7.06,-13.88c-5.78,-1.88 -12,1.28 -13.88,7.06l-56.16,172.51c-1.88,5.78 1.28,11.99 7.06,13.88z" />
			</g>
		</g>
	</g>
	<g id="Layer">
	</g>
	<g id="Layer">
	</g>
	<g id="Layer">
	</g>
	<g id="Layer">
	</g>
	<g id="Layer">
	</g>
	<g id="Layer">
	</g>
	<g id="Layer">
	</g>
	<g id="Layer">
	</g>
	<g id="Layer">
	</g>
	<g id="Layer">
	</g>
	<g id="Layer">
	</g>
	<g id="Layer">
	</g>
	<g id="Layer">
	</g>
	<g id="Layer">
	</g>
	<g id="Layer">
	</g>
</svg>