<svg xmlns="http://www.w3.org/2000/svg" viewBox="0 0 512 512" width="512" height="512">
	<style>
		tspan { white-space:pre }
		.shp0 { fill: #000000 } 
	</style>
	<g id="Layer">
		<g id="Layer">
			<path id="Layer" class="shp0" d="M512,53.33v405.33c-0.03,29.44 -23.89,53.3 -53.33,53.33h-405.33c-29.44,-0.04 -53.3,-23.89 -53.33,-53.33v-405.33c0.04,-29.44 23.89,-53.3 53.33,-53.33h405.33c29.44,0.04 53.3,23.89 53.33,53.33zM490.67,458.67v-405.33c0,-17.67 -14.33,-32 -32,-32h-405.33c-17.67,0 -32,14.33 -32,32v405.33c0,17.67 14.33,32 32,32h405.33c17.67,0 32,-14.33 32,-32z" />
		</g>
	</g>
	<g id="Layer">
		<g id="Layer">
			<path id="Layer" class="shp0" d="M42.67,106.67h160v-21.33h-160z" />
		</g>
	</g>
	<g id="Layer">
		<g id="Layer">
			<path id="Layer" class="shp0" d="M53.33,64h21.33v-21.33h-21.33z" />
		</g>
	</g>
	<g id="Layer">
		<g id="Layer">
			<path id="Layer" class="shp0" d="M96,64h21.33v-21.33h-21.33z" />
		</g>
	</g>
	<g id="Layer">
		<g id="Layer">
			<path id="Layer" class="shp0" d="M437.33,64h21.33v-21.33h-21.33z" />
		</g>
	</g>
	<g id="Layer">
		<g id="Layer">
			<path id="Layer" class="shp0" d="M469.33,192v234.67c0,11.78 -9.55,21.33 -21.33,21.33h-384c-11.78,0 -21.33,-9.55 -21.33,-21.33v-234.67c0,-11.78 9.55,-21.33 21.33,-21.33h384c11.78,0 21.33,9.55 21.33,21.33zM448,192h-384v234.67h384z" />
		</g>
	</g>
	<g id="Layer">
		<g id="Layer">
			<path id="Layer" class="shp0" d="M263.54,88.46c-4.17,-4.16 -10.92,-4.16 -15.08,0l-85.33,85.33l15.08,15.08l77.79,-77.79l77.46,77.46l15.08,-15.08z" />
		</g>
	</g>
	<g id="Layer">
		<g id="Layer">
			<path id="Layer" class="shp0" d="M309.33,106.67h149.33v-21.33h-149.33z" />
		</g>
	</g>
	<g id="Layer">
		<g id="Layer">
			<path id="Layer" class="shp0" d="M224,352v-21.33h-21.33v21.33c0.06,0.63 0.06,1.27 0,1.91c-0.53,5.37 -5.3,9.29 -10.67,8.76h-21.33c-0.63,0.06 -1.27,0.06 -1.91,0c-5.37,-0.53 -9.29,-5.3 -8.76,-10.67v-85.33c-0.06,-0.63 -0.06,-1.27 0,-1.91c0.53,-5.37 5.3,-9.29 10.67,-8.76h21.33c0.63,-0.06 1.27,-0.06 1.91,0c5.37,0.53 9.29,5.3 8.76,10.67v21.33h21.33v-21.33c0.02,-0.61 0.02,-1.21 0,-1.82c-0.5,-17.17 -14.83,-30.68 -32,-30.18h-21.33c-0.61,-0.02 -1.21,-0.02 -1.82,0c-17.17,0.5 -30.68,14.83 -30.18,32v85.33c-0.02,0.61 -0.02,1.21 0,1.82c0.5,17.17 14.83,30.68 32,30.18h21.33c0.61,0.02 1.21,0.02 1.82,0c17.17,-0.5 30.68,-14.83 30.18,-32z" />
		</g>
	</g>
	<g id="Layer">
		<g id="Layer">
			<path id="Layer" class="shp0" d="M266.67,384h21.33v-149.33h-21.33z" />
		</g>
	</g>
	<g id="Layer">
		<g id="Layer">
			<path id="Layer" class="shp0" d="M320,384h21.33v-149.33h-21.33z" />
		</g>
	</g>
	<g id="Layer">
		<g id="Layer">
			<path id="Layer" class="shp0" d="M245.33,288h117.33v-21.33h-117.33z" />
		</g>
	</g>
	<g id="Layer">
		<g id="Layer">
			<path id="Layer" class="shp0" d="M245.33,352h117.33v-21.33h-117.33z" />
		</g>
	</g>
	<g id="Layer">
	</g>
	<g id="Layer">
	</g>
	<g id="Layer">
	</g>
	<g id="Layer">
	</g>
	<g id="Layer">
	</g>
	<g id="Layer">
	</g>
	<g id="Layer">
	</g>
	<g id="Layer">
	</g>
	<g id="Layer">
	</g>
	<g id="Layer">
	</g>
	<g id="Layer">
	</g>
	<g id="Layer">
	</g>
	<g id="Layer">
	</g>
	<g id="Layer">
	</g>
	<g id="Layer">
	</g>
</svg>