<svg xmlns="http://www.w3.org/2000/svg" style="display: none;"><symbol id="4" viewBox="0 0 512 512"><title>4</title><style> tspan { white-space:pre } .shp0 { fill: #000000 } </style><g id="Layer"><g id="Layer"><g id="Layer"><path id="Layer" class="shp0" d="M64,53.33c0,-5.9 -4.77,-10.67 -10.67,-10.67c-5.9,0 -10.67,4.77 -10.67,10.67c0,5.9 4.77,10.67 10.67,10.67c5.9,0 10.67,-4.77 10.67,-10.67z"/><path id="Layer" class="shp0" d="M106.67,53.33c0,-5.9 -4.77,-10.67 -10.67,-10.67c-5.9,0 -10.67,4.77 -10.67,10.67c0,5.9 4.77,10.67 10.67,10.67c5.9,0 10.67,-4.77 10.67,-10.67z"/><path id="Layer" class="shp0" d="M149.33,53.33c0,-5.9 -4.77,-10.67 -10.67,-10.67c-5.9,0 -10.67,4.77 -10.67,10.67c0,5.9 4.77,10.67 10.67,10.67c5.9,0 10.67,-4.77 10.67,-10.67z"/><path id="Layer" class="shp0" d="M188.17,301.15l-54.17,-45.15l54.17,-45.15c4.52,-3.77 5.13,-10.5 1.37,-15.02c-3.78,-4.5 -10.48,-5.15 -15.03,-1.35l-64,53.33c-2.43,2.02 -3.83,5.02 -3.83,8.19c0,3.17 1.41,6.17 3.83,8.19l64,53.33c2,1.67 4.42,2.48 6.82,2.48c3.06,0 6.09,-1.31 8.21,-3.83c3.77,-4.52 3.16,-11.25 -1.37,-15.02z"/><path id="Layer" class="shp0" d="M279.8,316.17c2.12,2.52 5.15,3.83 8.21,3.83c2.41,0 4.82,-0.81 6.82,-2.48l64,-53.33c2.43,-2.02 3.83,-5.02 3.83,-8.19c0,-3.17 -1.41,-6.17 -3.83,-8.19l-64,-53.33c-4.53,-3.79 -11.24,-3.15 -15.03,1.35c-3.77,4.52 -3.16,11.25 1.37,15.02l54.17,45.15l-54.17,45.15c-4.52,3.77 -5.14,10.5 -1.36,15.02z"/><path id="Layer" class="shp0" d="M270.87,171.52c-5.38,-2.29 -11.69,0.19 -14,5.6l-64,149.33c-2.32,5.42 0.19,11.69 5.6,14.02c1.37,0.58 2.79,0.85 4.2,0.85c4.13,0 8.07,-2.42 9.8,-6.46l64,-149.33c2.32,-5.42 -0.19,-11.69 -5.6,-14.02z"/><path id="Layer" class="shp0" d="M512,373.33v42.67c0,4.9 -3.33,9.17 -8.07,10.35l-20.44,5.1l10.83,18.04c2.52,4.21 1.85,9.58 -1.6,13.04l-30.17,30.17c-3.46,3.46 -8.83,4.13 -13.03,1.6l-18.06,-10.83l-5.12,20.44c-1.19,4.75 -5.45,8.08 -10.34,8.08h-42.66c-4.9,0 -9.16,-3.33 -10.34,-8.08l-5.12,-20.44l-18.06,10.83c-4.22,2.5 -9.58,1.85 -13.03,-1.6l-23.37,-23.37h-260.74c-23.53,0 -42.67,-19.15 -42.67,-42.67v-384c0,-23.52 19.14,-42.67 42.67,-42.67h384c23.53,0 42.67,19.15 42.67,42.67v260.74l23.38,23.38c3.46,3.46 4.13,8.83 1.6,13.04l-10.83,18.04l20.44,5.1c4.74,1.19 8.07,5.46 8.07,10.35zM21.33,85.33h426.67v-42.67c0,-11.77 -9.57,-21.33 -21.33,-21.33h-384c-11.76,0 -21.33,9.56 -21.33,21.33zM305.84,431.46l-20.44,-5.1c-4.74,-1.19 -8.07,-5.46 -8.07,-10.35v-42.67c0,-4.9 3.33,-9.17 8.07,-10.35l20.44,-5.1l-10.83,-18.04c-2.52,-4.21 -1.85,-9.58 1.6,-13.04l30.17,-30.17c3.45,-3.48 8.82,-4.12 13.03,-1.6l18.06,10.83l5.12,-20.44c1.19,-4.75 5.45,-8.08 10.34,-8.08h42.67c4.9,0 9.16,3.33 10.34,8.08l5.12,20.44l16.54,-9.92v-189.27h-426.67v320c0,11.77 9.57,21.33 21.33,21.33h253.24zM490.67,381.67l-18.32,-4.58c-3.48,-0.87 -6.29,-3.44 -7.48,-6.83c-0.95,-2.73 -1.99,-5.4 -3.25,-7.98c-1.57,-3.25 -1.41,-7.06 0.45,-10.17l9.68,-16.12l-18.38,-18.37l-16.13,9.67c-3.09,1.88 -6.92,2 -10.16,0.46c-2.59,-1.27 -5.27,-2.31 -8.01,-3.27c-3.37,-1.19 -5.93,-4 -6.79,-7.48l-4.58,-18.31h-26.02l-4.58,18.31c-0.86,3.48 -3.42,6.29 -6.79,7.48c-2.74,0.96 -5.42,2 -8.01,3.27c-3.26,1.54 -7.06,1.4 -10.16,-0.46l-16.13,-9.67l-18.38,18.38l9.68,16.13c1.85,3.1 2.02,6.92 0.45,10.17c-1.26,2.58 -2.3,5.25 -3.25,7.98c-1.19,3.4 -4,5.96 -7.48,6.83l-18.32,4.58v26l18.32,4.58c3.48,0.88 6.29,3.44 7.48,6.83c0.95,2.73 1.99,5.4 3.25,7.98c1.57,3.25 1.41,7.06 -0.45,10.17l-9.68,16.13l18.38,18.38l16.13,-9.67c3.09,-1.87 6.92,-2.02 10.16,-0.46c2.59,1.27 5.27,2.31 8.01,3.27c3.38,1.19 5.93,4 6.79,7.48l4.58,18.31h26.02l4.58,-18.31c0.86,-3.48 3.42,-6.29 6.79,-7.48c2.74,-0.96 5.42,-2 8.01,-3.27c3.23,-1.58 7.06,-1.42 10.16,0.46l16.13,9.67l18.38,-18.37l-9.68,-16.12c-1.85,-3.1 -2.02,-6.92 -0.45,-10.17c1.26,-2.58 2.3,-5.25 3.25,-7.98c1.19,-3.4 4,-5.96 7.48,-6.83l18.32,-4.58z"/><path id="Layer" class="shp0" d="M448,394.67c0,29.42 -23.93,53.33 -53.33,53.33c-29.41,0 -53.33,-23.92 -53.33,-53.33c0,-29.42 23.93,-53.33 53.33,-53.33c29.41,0 53.33,23.92 53.33,53.33zM426.67,394.67c0,-17.65 -14.35,-32 -32,-32c-17.65,0 -32,14.35 -32,32c0,17.65 14.35,32 32,32c17.65,0 32,-14.35 32,-32z"/></g></g></g></symbol><symbol id="3" viewBox="0 0 512 512"><title>3</title><style> tspan { white-space:pre } .shp0 { fill: #000000 } </style><g id="Layer"><g id="Layer"><path id="Layer" class="shp0" d="M512,53.33v405.33c-0.03,29.44 -23.89,53.3 -53.33,53.33h-405.33c-29.44,-0.04 -53.3,-23.89 -53.33,-53.33v-405.33c0.04,-29.44 23.89,-53.3 53.33,-53.33h405.33c29.44,0.04 53.3,23.89 53.33,53.33zM490.67,458.67v-405.33c0,-17.67 -14.33,-32 -32,-32h-405.33c-17.67,0 -32,14.33 -32,32v405.33c0,17.67 14.33,32 32,32h405.33c17.67,0 32,-14.33 32,-32z"/></g></g><g id="Layer"><g id="Layer"><path id="Layer" class="shp0" d="M42.67,106.67h160v-21.33h-160z"/></g></g><g id="Layer"><g id="Layer"><path id="Layer" class="shp0" d="M53.33,64h21.33v-21.33h-21.33z"/></g></g><g id="Layer"><g id="Layer"><path id="Layer" class="shp0" d="M96,64h21.33v-21.33h-21.33z"/></g></g><g id="Layer"><g id="Layer"><path id="Layer" class="shp0" d="M437.33,64h21.33v-21.33h-21.33z"/></g></g><g id="Layer"><g id="Layer"><path id="Layer" class="shp0" d="M469.33,192v234.67c0,11.78 -9.55,21.33 -21.33,21.33h-384c-11.78,0 -21.33,-9.55 -21.33,-21.33v-234.67c0,-11.78 9.55,-21.33 21.33,-21.33h384c11.78,0 21.33,9.55 21.33,21.33zM448,192h-384v234.67h384z"/></g></g><g id="Layer"><g id="Layer"><path id="Layer" class="shp0" d="M263.54,88.46c-4.17,-4.16 -10.92,-4.16 -15.08,0l-85.33,85.33l15.08,15.08l77.79,-77.79l77.46,77.46l15.08,-15.08z"/></g></g><g id="Layer"><g id="Layer"><path id="Layer" class="shp0" d="M309.33,106.67h149.33v-21.33h-149.33z"/></g></g><g id="Layer"><g id="Layer"><path id="Layer" class="shp0" d="M224,352v-21.33h-21.33v21.33c0.06,0.63 0.06,1.27 0,1.91c-0.53,5.37 -5.3,9.29 -10.67,8.76h-21.33c-0.63,0.06 -1.27,0.06 -1.91,0c-5.37,-0.53 -9.29,-5.3 -8.76,-10.67v-85.33c-0.06,-0.63 -0.06,-1.27 0,-1.91c0.53,-5.37 5.3,-9.29 10.67,-8.76h21.33c0.63,-0.06 1.27,-0.06 1.91,0c5.37,0.53 9.29,5.3 8.76,10.67v21.33h21.33v-21.33c0.02,-0.61 0.02,-1.21 0,-1.82c-0.5,-17.17 -14.83,-30.68 -32,-30.18h-21.33c-0.61,-0.02 -1.21,-0.02 -1.82,0c-17.17,0.5 -30.68,14.83 -30.18,32v85.33c-0.02,0.61 -0.02,1.21 0,1.82c0.5,17.17 14.83,30.68 32,30.18h21.33c0.61,0.02 1.21,0.02 1.82,0c17.17,-0.5 30.68,-14.83 30.18,-32z"/></g></g><g id="Layer"><g id="Layer"><path id="Layer" class="shp0" d="M266.67,384h21.33v-149.33h-21.33z"/></g></g><g id="Layer"><g id="Layer"><path id="Layer" class="shp0" d="M320,384h21.33v-149.33h-21.33z"/></g></g><g id="Layer"><g id="Layer"><path id="Layer" class="shp0" d="M245.33,288h117.33v-21.33h-117.33z"/></g></g><g id="Layer"><g id="Layer"><path id="Layer" class="shp0" d="M245.33,352h117.33v-21.33h-117.33z"/></g></g></symbol></svg>